<svg width="15" height="16" viewBox="0 0 15 16" fill="none" xmlns="http://www.w3.org/2000/svg">
<path fill-rule="evenodd" clip-rule="evenodd" d="M3.68677 7.79201L4.39543 4.25331C4.54032 3.5371 4.92849 2.89305 5.4941 2.43041C6.05971 1.96776 6.76793 1.71501 7.49865 1.71501C8.22937 1.71501 8.9376 1.96776 9.50321 2.43041C10.0688 2.89305 10.457 3.5371 10.6019 4.25331L11.3105 7.79201C11.5232 8.84791 12.042 9.81785 12.8021 10.5809L13.0239 10.8015C13.1056 10.8833 13.1639 10.9854 13.1928 11.0973C13.2217 11.2092 13.2202 11.3268 13.1883 11.438C13.1565 11.5491 13.0956 11.6496 13.0118 11.7293C12.928 11.8089 12.8244 11.8647 12.7118 11.8908L11.7734 12.1079C8.96069 12.7584 6.03661 12.7584 3.22386 12.1079L2.28661 11.8908C2.17393 11.8648 2.07025 11.8092 1.98632 11.7296C1.9024 11.65 1.8413 11.5495 1.80934 11.4383C1.77739 11.3272 1.77576 11.2095 1.80461 11.0976C1.83346 10.9856 1.89175 10.8834 1.97343 10.8015L2.19517 10.5809C2.95701 9.81908 3.47605 8.8486 3.68677 7.79201ZM2.00657 7.45597L2.71409 3.91727C2.93657 2.81225 3.53468 1.8183 4.40685 1.10423C5.27901 0.390166 6.37146 0 7.49865 0C8.62585 0 9.71829 0.390166 10.5905 1.10423C11.4626 1.8183 12.0607 2.81225 12.2832 3.91727L12.9919 7.45597C13.1359 8.18063 13.4925 8.84585 14.0149 9.3682L14.2366 9.58994C14.535 9.88802 14.7481 10.2606 14.8537 10.6689C14.9594 11.0772 14.9538 11.5064 14.8375 11.9118C14.7212 12.3172 14.4984 12.684 14.1923 12.9742C13.8863 13.2644 13.5081 13.4673 13.097 13.5618L12.1586 13.779C11.3562 13.9619 10.5485 14.0983 9.73549 14.1882C9.62681 14.7007 9.34537 15.1604 8.93828 15.4902C8.53119 15.82 8.02315 16 7.49922 16C6.97529 16 6.46726 15.82 6.06017 15.4902C5.65308 15.1604 5.37164 14.7007 5.26296 14.1882C4.44779 14.0998 3.63863 13.9628 2.83982 13.7779L1.90028 13.5607C1.4897 13.4657 1.11201 13.2626 0.806364 12.9725C0.500714 12.6823 0.278232 12.3157 0.161981 11.9107C0.0457302 11.5056 0.0399433 11.0768 0.14522 10.6687C0.250497 10.2607 0.463005 9.88821 0.760713 9.58994L0.983597 9.36705C1.50594 8.84471 1.86256 8.17834 2.00657 7.45483" fill="#522F58"/>
</svg>
