<svg width="4" height="17" viewBox="0 0 4 17" fill="none" xmlns="http://www.w3.org/2000/svg">
<path fill-rule="evenodd" clip-rule="evenodd" d="M2.04989 0.0507812C2.67659 0.0507812 3.18464 0.558827 3.18464 1.18553V10.2635C3.18464 10.8903 2.67659 11.3983 2.04989 11.3983C1.42318 11.3983 0.915136 10.8903 0.915136 10.2635V1.18553C0.915136 0.558827 1.42318 0.0507812 2.04989 0.0507812ZM0.858398 14.8026C0.858398 14.1758 1.36644 13.6678 1.99315 13.6678H2.10663C2.73333 13.6678 3.24138 14.1758 3.24138 14.8026V14.916C3.24138 15.5427 2.73333 16.0508 2.10663 16.0508H1.99315C1.36644 16.0508 0.858398 15.5427 0.858398 14.916V14.8026Z" fill="#522F58"/>
</svg>
