<svg width="16" height="16" viewBox="0 0 16 16" fill="none" xmlns="http://www.w3.org/2000/svg">
<path d="M2.88889 1.77778C2.27556 1.77778 1.77778 2.27556 1.77778 2.88889V13.1111C1.77778 13.7244 2.27556 14.2222 2.88889 14.2222H13.1111C13.7244 14.2222 14.2222 13.7244 14.2222 13.1111V9.77778C14.2222 9.54203 14.3159 9.31594 14.4826 9.14924C14.6493 8.98254 14.8754 8.88889 15.1111 8.88889C15.3469 8.88889 15.573 8.98254 15.7397 9.14924C15.9064 9.31594 16 9.54203 16 9.77778V13.1111C16 13.8773 15.6956 14.6121 15.1539 15.1539C14.6121 15.6956 13.8773 16 13.1111 16H2.88889C2.12271 16 1.38791 15.6956 0.846136 15.1539C0.304364 14.6121 0 13.8773 0 13.1111V2.88889C0 2.12271 0.304364 1.38791 0.846136 0.846136C1.38791 0.304364 2.12271 0 2.88889 0H6.22222C6.45797 0 6.68406 0.0936505 6.85076 0.260349C7.01746 0.427048 7.11111 0.653141 7.11111 0.888889C7.11111 1.12464 7.01746 1.35073 6.85076 1.51743C6.68406 1.68413 6.45797 1.77778 6.22222 1.77778H2.88889ZM9.77778 1.77778C9.54203 1.77778 9.31594 1.68413 9.14924 1.51743C8.98254 1.35073 8.88889 1.12464 8.88889 0.888889C8.88889 0.653141 8.98254 0.427048 9.14924 0.260349C9.31594 0.0936505 9.54203 0 9.77778 0H15.1111C15.3469 0 15.573 0.0936505 15.7397 0.260349C15.9064 0.427048 16 0.653141 16 0.888889V6.22222C16 6.45797 15.9064 6.68406 15.7397 6.85076C15.573 7.01746 15.3469 7.11111 15.1111 7.11111C14.8754 7.11111 14.6493 7.01746 14.4826 6.85076C14.3159 6.68406 14.2222 6.45797 14.2222 6.22222V3.03467L10.4062 6.85067C10.2386 7.01258 10.014 7.10218 9.78098 7.10015C9.54791 7.09813 9.32497 7.00465 9.16016 6.83984C8.99535 6.67503 8.90187 6.45209 8.89985 6.21902C8.89782 5.98596 8.98742 5.76142 9.14933 5.59378L12.9653 1.77778H9.77778Z" fill="#522F58"/>
</svg>
