<svg width="18" height="17" viewBox="0 0 18 17" fill="none" xmlns="http://www.w3.org/2000/svg">
<path fill-rule="evenodd" clip-rule="evenodd" d="M8.41099 1.35C8.50041 1.19656 8.6285 1.06925 8.78248 0.980757C8.93647 0.89227 9.11096 0.845703 9.28856 0.845703C9.46615 0.845703 9.64065 0.89227 9.79463 0.980757C9.94861 1.06925 10.0767 1.19656 10.1661 1.35L12.4372 5.24865L16.8478 6.20422C17.0213 6.24192 17.1818 6.32444 17.3135 6.44355C17.4452 6.56265 17.5433 6.71419 17.5981 6.88305C17.653 7.05191 17.6626 7.23219 17.626 7.40593C17.5895 7.57966 17.508 7.74078 17.3898 7.87321L14.3833 11.238L14.8383 15.7274C14.8563 15.9042 14.8275 16.0826 14.755 16.2448C14.6824 16.407 14.5686 16.5473 14.4248 16.6517C14.2811 16.7562 14.1124 16.8211 13.9358 16.84C13.7591 16.8588 13.5805 16.831 13.418 16.7593L9.28856 14.9392L5.15914 16.7593C4.99656 16.831 4.81802 16.8588 4.64134 16.84C4.46466 16.8211 4.29603 16.7562 4.15228 16.6517C4.00853 16.5473 3.89469 16.407 3.82213 16.2448C3.74958 16.0826 3.72084 15.9042 3.73879 15.7274L4.19382 11.238L1.18736 7.87403C1.06891 7.7416 0.987272 7.58042 0.950592 7.40658C0.913912 7.23274 0.923474 7.05231 0.978325 6.88332C1.03317 6.71433 1.13139 6.56268 1.26318 6.44352C1.39496 6.32435 1.55569 6.24184 1.72934 6.20422L6.1399 5.24865L8.41099 1.35ZM9.28856 3.07181L7.40911 6.29929C7.33805 6.42111 7.24239 6.5268 7.12823 6.60962C7.01408 6.69243 6.88392 6.75057 6.74606 6.78032L3.09606 7.57094L5.58411 10.3556C5.77425 10.5685 5.86606 10.8512 5.83763 11.1348L5.46141 14.8506L8.87903 13.3442C9.00807 13.2873 9.14754 13.2579 9.28856 13.2579C9.42957 13.2579 9.56904 13.2873 9.69808 13.3442L13.1157 14.8506L12.7395 11.1348C12.7252 10.9945 12.7403 10.8528 12.7838 10.7186C12.8273 10.5844 12.8983 10.4608 12.9922 10.3556L15.4811 7.57094L11.831 6.78032C11.6932 6.75057 11.563 6.69243 11.4489 6.60962C11.3347 6.5268 11.2391 6.42111 11.168 6.29929L9.28856 3.07181Z" fill="#522F58"/>
</svg>
